<?xml version="1.0" encoding="UTF-8"?>
<!DOCTYPE svg PUBLIC "-//W3C//DTD SVG 1.1//EN" "http://www.w3.org/Graphics/SVG/1.1/DTD/svg11.dtd">
<!-- Creator: CorelDRAW 2020 (64-Bit) -->
<svg xmlns="http://www.w3.org/2000/svg" xml:space="preserve" width="84.6667mm" height="55.9858mm" version="1.1" style="shape-rendering:geometricPrecision; text-rendering:geometricPrecision; image-rendering:optimizeQuality; fill-rule:evenodd; clip-rule:evenodd"
viewBox="0 0 8466.68 5598.59"
 xmlns:xlink="http://www.w3.org/1999/xlink"
 xmlns:xodm="http://www.corel.com/coreldraw/odm/2003">
 <defs>
  <style type="text/css">
   <![CDATA[
    .fil4 {fill:#FEFEFE;fill-rule:nonzero}
    .fil5 {fill:#F4B503;fill-rule:nonzero}
    .fil3 {fill:white;fill-rule:nonzero}
    .fil6 {fill:#69A2FB;fill-opacity:0.749020}
    .fil7 {fill:#F4B503;fill-opacity:0.749020}
    .fil1 {fill:#1E1E1E;fill-rule:nonzero;fill-opacity:0.850980}
    .fil0 {fill:url(#id0);fill-rule:nonzero}
    .fil8 {fill:url(#id1);fill-rule:nonzero}
    .fil2 {fill:url(#id2);fill-rule:nonzero}
   ]]>
  </style>
  <linearGradient id="id0" gradientUnits="objectBoundingBox" x1="25.9644%" y1="0%" x2="74.0356%" y2="125.964%">
   <stop offset="0" style="stop-opacity:1; stop-color:#6FA8FF"/>
   <stop offset="1" style="stop-opacity:1; stop-color:#3B6FD8"/>
  </linearGradient>
  <radialGradient id="id1" gradientUnits="userSpaceOnUse" gradientTransform="matrix(1 -0 -0 1 0 0)" cx="5418.28" cy="836.09" r="793.75" fx="5418.28" fy="836.09">
   <stop offset="0" style="stop-opacity:1; stop-color:#FFE08A"/>
   <stop offset="1" style="stop-opacity:1; stop-color:#F4B400"/>
  </radialGradient>
  <radialGradient id="id2" gradientUnits="userSpaceOnUse" gradientTransform="matrix(1 -0 -0 1 0 0)" xlink:href="#id1" cx="2600.11" cy="1961.67" r="793.75" fx="2600.11" fy="1961.67">
  </radialGradient>
 </defs>
 <g id="Capa_x0020_1">
  <metadata id="CorelCorpID_0Corel-Layer"/>
  <path class="fil0" d="M529.16 836.08l7408.35 0c292.2,0 529.17,236.97 529.17,529.17l-0.01 3704.17c0.01,292.19 -236.96,529.16 -529.16,529.16l-7408.35 0c-292.19,0 -529.16,-236.97 -529.16,-529.17l0 -3704.16c0,-292.2 236.97,-529.17 529.17,-529.17z" filter="url(#shadow)"/>
  <polygon class="fil1" points="-0,3217.33 8466.68,3217.33 8466.68,2159 -0,2159 "/>
  <g id="_2282520627808">
   <circle class="fil2" cx="2600.11" cy="1961.67" r="1626.08"/>
   <polygon class="fil3" points="2600.11,877.61 2979.53,1690.64 3846.79,1690.64 3142.15,2232.68 3413.16,3045.71 2600.11,2503.69 1787.08,3045.71 2058.09,2232.68 1353.45,1690.64 2220.71,1690.64 "/>
  </g>
  <path class="fil0" d="M8466.68 3217.33l-0.01 1852.09c0.01,292.19 -236.96,529.16 -529.16,529.16l-7408.35 0c-292.19,0 -529.16,-236.97 -529.16,-529.17l0 -1852.08 8466.68 0z" filter="url(#shadow)"/>
  <g id="_2282520630256">
   <path class="fil4" d="M1031.24 4276.84c-17.26,0 -30.43,-4.55 -39.52,-13.64 -9.1,-9.09 -13.64,-22.03 -13.64,-38.82 0,-16.79 4.54,-29.61 13.64,-38.47 9.09,-8.86 22.26,-13.29 39.52,-13.29l62.95 0 0 -286.08 58.75 0 -101.42 62.25c-12.12,7.46 -23.55,10.38 -34.27,8.75 -10.73,-1.64 -19.82,-6.18 -27.28,-13.64 -7.46,-7.46 -12.36,-16.56 -14.69,-27.28 -2.33,-10.73 -1.4,-21.45 2.8,-32.18 4.19,-10.72 12.59,-19.82 25.18,-27.28l96.52 -60.15c10.26,-6.53 20.87,-11.42 31.83,-14.69 10.96,-3.26 22.5,-4.89 34.62,-4.89 17.72,0 31.48,4.54 41.27,13.64 9.79,9.09 14.69,22.26 14.69,39.51l0 342.04 55.95 0c17.26,0 30.43,4.43 39.52,13.29 9.1,8.86 13.64,21.68 13.64,38.47 0,16.79 -4.54,29.73 -13.64,38.82 -9.09,9.09 -22.26,13.64 -39.52,13.64l-246.9 0zm519.7 7.69c-60.62,0 -107.14,-22.26 -139.54,-66.79 -32.41,-44.54 -48.62,-107.6 -48.62,-189.21 0,-55.02 7.23,-101.3 21.69,-138.84 14.45,-37.54 35.67,-65.87 63.65,-84.99 27.98,-19.11 62.25,-28.67 102.82,-28.67 61.08,0 107.71,21.45 139.89,64.35 32.18,42.9 48.26,105.38 48.26,187.45 0,54.56 -7.23,100.96 -21.68,139.19 -14.46,38.24 -35.67,67.39 -63.65,87.44 -27.98,20.05 -62.25,30.07 -102.82,30.07zm0 -102.12c22.38,0 39.05,-12.24 50.01,-36.72 10.96,-24.48 16.44,-63.77 16.44,-117.86 0,-53.62 -5.48,-91.98 -16.44,-115.06 -10.96,-23.08 -27.63,-34.62 -50.01,-34.62 -22.38,0 -39.06,11.54 -50.01,34.62 -10.96,23.08 -16.44,61.44 -16.44,115.06 0,54.09 5.48,93.38 16.44,117.86 10.95,24.48 27.63,36.72 50.01,36.72zm318.96 100.73c-20.52,0 -36.38,-5.72 -47.57,-17.14 -11.19,-11.43 -16.78,-27.4 -16.78,-47.91l0 -375.61c0,-21.45 5.59,-37.66 16.78,-48.62 11.19,-10.96 27.05,-16.43 47.57,-16.43 20.98,0 36.95,5.47 47.91,16.43 10.96,10.96 16.44,27.17 16.44,48.62l0 152.48 1.4 0 169.96 -187.46c8.86,-9.32 18.31,-16.67 28.33,-22.03 10.03,-5.36 21.34,-8.04 33.93,-8.04 19.58,0 33.69,5.01 42.31,15.03 8.63,10.03 12.59,21.69 11.89,34.98 -0.7,13.29 -6.17,25.53 -16.43,36.72l-169.27 179.76 0 -52.46 177.66 200.75c12.12,13.52 18.19,27.39 18.19,41.61 0,14.23 -4.78,26 -14.34,35.33 -9.56,9.32 -23.67,13.99 -42.32,13.99 -15.85,0 -28.56,-3.15 -38.12,-9.45 -9.56,-6.29 -19.94,-15.74 -31.13,-28.33l-170.66 -190.95 -1.4 0 0 163.68c0,20.51 -5.37,36.48 -16.09,47.91 -10.73,11.42 -26.81,17.14 -48.26,17.14z"/>
   <path class="fil5" d="M2563.07 4283.14c-18.65,0 -32.99,-5.13 -43.02,-15.39 -10.02,-10.26 -15.04,-24.72 -15.04,-43.37l0 -388.2c0,-19.12 5.37,-33.69 16.09,-43.72 10.73,-10.02 25.88,-15.03 45.47,-15.03 16.32,0 29.26,3.14 38.82,9.44 9.56,6.29 18.3,16.67 26.23,31.12l150.38 270 -24.48 0 149.68 -270c8.4,-14.45 17.37,-24.83 26.93,-31.12 9.56,-6.3 22.5,-9.44 38.82,-9.44 18.66,0 32.99,5.01 43.02,15.03 10.03,10.03 15.04,24.6 15.04,43.72l0 388.2c0,18.65 -4.9,33.11 -14.69,43.37 -9.79,10.26 -24.25,15.39 -43.37,15.39 -18.65,0 -32.99,-5.13 -43.01,-15.39 -10.03,-10.26 -15.04,-24.72 -15.04,-43.37l0 -240.61 14.69 0 -112.62 195.85c-6.52,10.25 -13.4,17.95 -20.63,23.08 -7.23,5.13 -16.9,7.69 -29.03,7.69 -11.66,0 -21.22,-2.56 -28.68,-7.69 -7.46,-5.13 -14.22,-12.83 -20.28,-23.08l-113.31 -196.55 16.08 0 0 241.31c0,18.65 -4.89,33.11 -14.68,43.37 -9.8,10.26 -24.25,15.39 -43.37,15.39zm737.93 1.39c-41.97,0 -78.23,-7.34 -108.77,-22.03 -30.54,-14.69 -53.97,-35.55 -70.29,-62.6 -16.33,-27.05 -24.49,-58.99 -24.49,-95.83 0,-35.44 7.81,-66.56 23.44,-93.37 15.62,-26.82 37.07,-47.8 64.35,-62.96 27.28,-15.15 58.4,-22.73 93.37,-22.73 25.65,0 48.97,4.08 69.95,12.24 20.98,8.16 38.94,20.05 53.86,35.67 14.92,15.63 26.23,34.39 33.92,56.31 7.7,21.92 11.54,46.4 11.54,73.44 0,9.33 -2.56,16.21 -7.69,20.64 -5.13,4.43 -13.29,6.64 -24.48,6.64l-214.04 0 0 -58.75 155.28 0 -11.19 9.09c0,-17.25 -2.33,-31.24 -6.99,-41.97 -4.67,-10.72 -11.54,-18.88 -20.64,-24.48 -9.09,-5.59 -20.4,-8.39 -33.92,-8.39 -14.46,0 -26.93,3.38 -37.42,10.14 -10.49,6.76 -18.54,16.67 -24.13,29.73 -5.6,13.06 -8.4,29.38 -8.4,48.96l0 6.3c0,33.1 7.35,56.77 22.04,70.99 14.69,14.22 37.42,21.33 68.19,21.33 10.26,0 22.04,-1.28 35.33,-3.84 13.29,-2.57 25.99,-6.18 38.12,-10.84 12.12,-4.67 22.61,-5.48 31.47,-2.45 8.86,3.03 15.74,8.16 20.64,15.39 4.89,7.22 7.58,15.38 8.04,24.48 0.47,9.09 -1.63,17.95 -6.29,26.58 -4.67,8.62 -12.36,15.27 -23.09,19.93 -16.32,7.46 -33.69,13.06 -52.11,16.79 -18.41,3.73 -36.95,5.59 -55.6,5.59zm263.69 -1.39c-19.58,0 -34.74,-5.37 -45.46,-16.09 -10.73,-10.73 -16.09,-26.35 -16.09,-46.87l0 -231.52c0,-20.05 5.25,-35.44 15.74,-46.16 10.49,-10.73 25.53,-16.09 45.11,-16.09 19.59,0 34.51,5.36 44.77,16.09 10.26,10.72 15.39,26.11 15.39,46.16l0 38.47 -7.7 -34.27c9.8,-20.52 24.37,-36.96 43.72,-49.31 19.35,-12.36 42.32,-18.54 68.9,-18.54 25.18,0 46.74,6.06 64.7,18.19 17.95,12.12 30.89,30.54 38.82,55.25l-9.8 0c10.73,-22.84 26.82,-40.8 48.27,-53.85 21.45,-13.06 45.23,-19.59 71.34,-19.59 27.05,0 49.2,5.25 66.45,15.74 17.25,10.49 30.19,26.81 38.82,48.96 8.63,22.15 12.94,50.01 12.94,83.59l0 146.88c0,20.52 -5.48,36.14 -16.44,46.87 -10.96,10.72 -26.46,16.09 -46.51,16.09 -19.59,0 -34.74,-5.37 -45.47,-16.09 -10.72,-10.73 -16.08,-26.35 -16.08,-46.87l0 -143.39c0,-20.05 -3.03,-34.5 -9.1,-43.36 -6.06,-8.86 -16.08,-13.29 -30.07,-13.29 -17.26,0 -30.43,6.06 -39.52,18.18 -9.1,12.13 -13.64,29.38 -13.64,51.76l0 130.1c0,20.52 -5.36,36.14 -16.09,46.87 -10.72,10.72 -26.11,16.09 -46.16,16.09 -20.06,0 -35.44,-5.37 -46.17,-16.09 -10.72,-10.73 -16.09,-26.35 -16.09,-46.87l0 -143.39c0,-20.05 -3.03,-34.5 -9.09,-43.36 -6.06,-8.86 -16.09,-13.29 -30.08,-13.29 -16.78,0 -29.72,6.06 -38.82,18.18 -9.09,12.13 -13.64,29.38 -13.64,51.76l0 130.1c0,41.97 -20.98,62.96 -62.95,62.96zm794.59 1.39c-26.58,0 -50.25,-6.41 -71,-19.23 -20.75,-12.82 -34.39,-29.73 -40.92,-50.71l7.7 -28.68 0 34.27c0,20.52 -5.25,36.14 -15.74,46.87 -10.49,10.72 -25.53,16.09 -45.12,16.09 -20.05,0 -35.32,-5.37 -45.81,-16.09 -10.49,-10.73 -15.74,-26.35 -15.74,-46.87l0 -379.8c0,-20.52 5.36,-36.14 16.09,-46.87 10.72,-10.72 25.88,-16.08 45.46,-16.08 20.06,0 35.56,5.36 46.52,16.08 10.96,10.73 16.44,26.35 16.44,46.87l0 149.68 -8.4 0c7,-19.12 20.75,-34.74 41.27,-46.86 20.52,-12.13 43.6,-18.19 69.25,-18.19 29.84,0 56.07,7.23 78.69,21.68 22.61,14.46 40.22,34.98 52.81,61.56 12.59,26.58 18.88,58.75 18.88,96.52 0,36.84 -6.29,68.78 -18.88,95.83 -12.59,27.04 -30.2,47.8 -52.81,62.25 -22.62,14.46 -48.85,21.68 -78.69,21.68zm-39.17 -91.63c12.59,0 23.66,-3.14 33.22,-9.44 9.56,-6.29 17.14,-15.85 22.73,-28.68 5.6,-12.82 8.4,-29.49 8.4,-50.01 0,-31.24 -6.06,-53.74 -18.19,-67.5 -12.12,-13.75 -27.51,-20.63 -46.16,-20.63 -12.59,0 -23.78,3.03 -33.58,9.09 -9.79,6.07 -17.48,15.51 -23.08,28.33 -5.59,12.83 -8.39,29.73 -8.39,50.71 0,30.78 6.06,53.16 18.18,67.15 12.13,13.99 27.75,20.98 46.87,20.98zm309.86 90.24c-20.51,0 -36.25,-5.37 -47.21,-16.09 -10.96,-10.73 -16.44,-26.35 -16.44,-46.87l0 -231.52c0,-20.05 5.25,-35.44 15.74,-46.16 10.49,-10.73 25.53,-16.09 45.11,-16.09 19.59,0 34.51,5.36 44.77,16.09 10.26,10.72 15.39,26.11 15.39,46.16l0 28.68 -7 0c4.67,-27.98 16.67,-50.13 36.03,-66.45 19.35,-16.32 43.48,-24.95 72.39,-25.88 13.52,-0.46 23.67,2.92 30.43,10.14 6.76,7.23 10.37,20.64 10.84,40.22 0,16.79 -3.5,30.08 -10.49,39.87 -7,9.79 -20.29,15.62 -39.87,17.49l-16.09 1.4c-24.71,2.33 -42.67,9.21 -53.86,20.63 -11.19,11.43 -16.79,28.33 -16.79,50.71l0 114.71c0,20.52 -5.36,36.14 -16.08,46.87 -10.73,10.72 -26.35,16.09 -46.87,16.09zm421.08 1.39c-41.97,0 -78.23,-7.34 -108.77,-22.03 -30.54,-14.69 -53.97,-35.55 -70.29,-62.6 -16.33,-27.05 -24.49,-58.99 -24.49,-95.83 0,-35.44 7.81,-66.56 23.44,-93.37 15.62,-26.82 37.07,-47.8 64.35,-62.96 27.28,-15.15 58.4,-22.73 93.37,-22.73 25.65,0 48.97,4.08 69.95,12.24 20.98,8.16 38.94,20.05 53.86,35.67 14.92,15.63 26.23,34.39 33.92,56.31 7.7,21.92 11.54,46.4 11.54,73.44 0,9.33 -2.56,16.21 -7.69,20.64 -5.13,4.43 -13.29,6.64 -24.48,6.64l-214.04 0 0 -58.75 155.28 0 -11.19 9.09c0,-17.25 -2.33,-31.24 -6.99,-41.97 -4.67,-10.72 -11.54,-18.88 -20.64,-24.48 -9.09,-5.59 -20.4,-8.39 -33.92,-8.39 -14.46,0 -26.93,3.38 -37.42,10.14 -10.49,6.76 -18.54,16.67 -24.13,29.73 -5.6,13.06 -8.4,29.38 -8.4,48.96l0 6.3c0,33.1 7.35,56.77 22.04,70.99 14.69,14.22 37.42,21.33 68.19,21.33 10.26,0 22.04,-1.28 35.33,-3.84 13.29,-2.57 25.99,-6.18 38.12,-10.84 12.12,-4.67 22.61,-5.48 31.47,-2.45 8.86,3.03 15.74,8.16 20.64,15.39 4.89,7.22 7.58,15.38 8.04,24.48 0.47,9.09 -1.63,17.95 -6.29,26.58 -4.67,8.62 -12.36,15.27 -23.09,19.93 -16.32,7.46 -33.69,13.06 -52.11,16.79 -18.41,3.73 -36.95,5.59 -55.6,5.59zm337.84 0c-20.52,0 -41.39,-1.51 -62.61,-4.54 -21.21,-3.03 -40.45,-8.51 -57.7,-16.44 -11.66,-4.66 -19.94,-10.96 -24.83,-18.89 -4.9,-7.92 -7.23,-16.32 -7,-25.18 0.24,-8.86 2.8,-16.9 7.7,-24.13 4.89,-7.22 11.42,-12.35 19.58,-15.39 8.16,-3.03 17.37,-2.68 27.63,1.05 19.59,7 37.19,12.01 52.81,15.04 15.62,3.03 30.66,4.55 45.12,4.55 17.25,0 29.61,-2.45 37.07,-7.35 7.46,-4.89 11.19,-11.3 11.19,-19.23 0,-7 -2.45,-12.36 -7.35,-16.09 -4.89,-3.73 -11.77,-6.29 -20.63,-7.69l-77.64 -12.59c-28.91,-5.13 -51.29,-15.74 -67.15,-31.83 -15.85,-16.09 -23.78,-37.19 -23.78,-63.3 0,-24.25 6.88,-45.11 20.63,-62.6 13.76,-17.49 32.65,-31.01 56.66,-40.57 24.02,-9.56 51.64,-14.34 82.89,-14.34 20.98,0 40.1,1.52 57.35,4.55 17.26,3.03 34.04,8.51 50.36,16.44 10.26,4.19 17.49,10.25 21.69,18.18 4.19,7.93 5.83,16.21 4.89,24.83 -0.93,8.63 -3.84,16.56 -8.74,23.78 -4.9,7.23 -11.54,12.13 -19.94,14.69 -8.39,2.57 -18.18,1.98 -29.37,-1.75 -15.39,-6.06 -29.03,-10.49 -40.92,-13.29 -11.89,-2.79 -22.97,-4.19 -33.23,-4.19 -19.11,0 -32.64,2.56 -40.56,7.69 -7.93,5.13 -11.89,11.66 -11.89,19.59 0,6.06 2.09,11.07 6.29,15.03 4.2,3.97 10.73,6.65 19.59,8.05l77.64 13.29c29.84,4.66 52.8,14.8 68.89,30.42 16.09,15.63 24.13,36.73 24.13,63.31 0,37.77 -14.45,67.03 -43.36,87.78 -28.91,20.75 -67.38,31.12 -115.41,31.12zm271.38 -1.39c-19.58,0 -34.74,-5.83 -45.46,-17.49 -10.73,-11.66 -16.09,-28.45 -16.09,-50.36l0 -221.03c0,-21.92 5.36,-38.71 16.09,-50.36 10.72,-11.66 25.88,-17.49 45.46,-17.49 20.06,0 35.56,5.83 46.52,17.49 10.96,11.65 16.44,28.44 16.44,50.36l0 221.03c0,21.91 -5.37,38.7 -16.09,50.36 -10.73,11.66 -26.35,17.49 -46.87,17.49zm0 -406.39c-21.91,0 -38.82,-5.13 -50.71,-15.39 -11.89,-10.26 -17.83,-25.18 -17.83,-44.76 0,-19.12 5.94,-33.81 17.83,-44.07 11.89,-10.26 28.8,-15.39 50.71,-15.39 22.85,0 40.11,5.13 51.76,15.39 11.66,10.26 17.49,24.95 17.49,44.07 0,19.58 -5.83,34.5 -17.49,44.76 -11.65,10.26 -28.91,15.39 -51.76,15.39zm254.61 407.78c-26.58,0 -50.01,-4.89 -70.3,-14.68 -20.28,-9.8 -36.13,-23.2 -47.56,-40.22 -11.42,-17.02 -17.14,-36.49 -17.14,-58.41 0,-25.18 6.53,-45 19.59,-59.45 13.06,-14.46 34.04,-24.83 62.95,-31.13 28.91,-6.29 67.38,-9.44 115.41,-9.44l38.47 0 0 58.75 -38.47 0c-18.18,0 -33.22,1.29 -45.11,3.85 -11.9,2.57 -20.64,6.53 -26.23,11.89 -5.6,5.36 -8.4,12.24 -8.4,20.64 0,10.72 3.85,19.58 11.54,26.57 7.7,7 18.77,10.5 33.23,10.5 11.66,0 22.03,-2.57 31.12,-7.7 9.1,-5.13 16.44,-12.24 22.04,-21.33 5.59,-9.09 8.39,-19.7 8.39,-31.83l0 -81.13c0,-16.79 -4.31,-28.68 -12.94,-35.68 -8.63,-6.99 -23.43,-10.49 -44.42,-10.49 -11.19,0 -23.78,1.28 -37.77,3.85 -13.99,2.56 -29.61,7.11 -46.86,13.64 -12.59,4.66 -23.32,5.36 -32.18,2.1 -8.85,-3.27 -15.73,-8.86 -20.63,-16.79 -4.9,-7.93 -7.23,-16.55 -6.99,-25.88 0.23,-9.33 3.26,-18.19 9.09,-26.58 5.83,-8.39 14.8,-14.92 26.93,-19.58 22.38,-8.4 43.02,-13.99 61.9,-16.79 18.89,-2.8 36.26,-4.2 52.11,-4.2 38.24,0 69.83,5.48 94.78,16.44 24.94,10.96 43.6,27.74 55.95,50.36 12.36,22.62 18.54,51.64 18.54,87.08l0 141.29c0,20.52 -4.9,36.14 -14.69,46.87 -9.79,10.72 -24.01,16.09 -42.67,16.09 -19.11,0 -33.69,-5.37 -43.71,-16.09 -10.03,-10.73 -15.04,-26.35 -15.04,-46.87l0 -18.18 4.2 9.79c-2.34,14.92 -7.7,27.75 -16.09,38.47 -8.39,10.73 -19.35,19.12 -32.88,25.18 -13.52,6.06 -28.91,9.09 -46.16,9.09z"/>
  </g>
  <g id="_2282520634624">
   <path class="fil6" d="M7010.76 4360.03c218.8,0 396.17,177.37 396.17,396.17 0,218.79 -177.37,396.16 -396.17,396.16 -218.79,0 -396.16,-177.37 -396.16,-396.16 0,-218.8 177.37,-396.17 396.16,-396.17z"/>
   <path class="fil7" d="M7667.82 4360.03c218.79,0 396.16,177.37 396.16,396.17 0,218.79 -177.37,396.16 -396.16,396.16 -218.8,0 -396.17,-177.37 -396.17,-396.16 0,-218.8 177.37,-396.17 396.17,-396.17z"/>
  </g>
  <g id="_2282520637408">
   <circle class="fil8" cx="5418.28" cy="836.09" r="836.09"/>
   <polygon class="fil3" points="5418.28,278.69 5613.37,696.73 6059.29,696.73 5696.98,975.44 5836.33,1393.48 5418.28,1114.78 5000.24,1393.48 5139.59,975.44 4777.28,696.73 5223.2,696.73 "/>
  </g>
 </g>
</svg>
